<?xml version="1.0" encoding="utf-8"?>
<!-- Generator: Adobe Illustrator 21.0.2, SVG Export Plug-In . SVG Version: 6.00 Build 0)  -->
<svg version="1.1" id="Layer_1" xmlns="http://www.w3.org/2000/svg" xmlns:xlink="http://www.w3.org/1999/xlink" x="0px" y="0px"
	 viewBox="0 0 144 144" style="enable-background:new 0 0 144 144;" xml:space="preserve">
<style type="text/css">
	.st0{fill:#71CCD3;}
</style>
<g>
	<path class="st0" d="M76.9,112.8L76.9,112.8c-2.7,2.7-7.2,2.7-9.9,0L2.3,48.2c-2.7-2.7-2.7-7.2,0-9.9c2.7-2.7,7.2-2.7,9.9,0
		l64.6,64.6C79.6,105.6,79.6,110.1,76.9,112.8"/>
	<path class="st0" d="M67.1,112.8L67.1,112.8c-2.7-2.7-2.7-7.2,0-9.9l64.6-64.6c2.7-2.7,7.2-2.7,9.9,0c2.7,2.7,2.7,7.2,0,9.9
		L77,112.8C74.3,115.6,69.8,115.6,67.1,112.8"/>
</g>
</svg>
