<?xml version="1.0" encoding="utf-8"?>
<!-- Generator: Adobe Illustrator 21.0.2, SVG Export Plug-In . SVG Version: 6.00 Build 0)  -->
<svg version="1.1" id="Layer_1" xmlns="http://www.w3.org/2000/svg" xmlns:xlink="http://www.w3.org/1999/xlink" x="0px" y="0px"
	 viewBox="0 0 288 288" style="enable-background:new 0 0 288 288;" xml:space="preserve">
<style type="text/css">
	.st0{fill:#71CCD3;}
</style>
<g>
	<path class="st0" d="M147.4,197.6L147.4,197.6c-1.9,1.9-5,1.9-7,0l-45.2-45.2c-1.9-1.9-1.9-5,0-7c1.9-1.9,5-1.9,7,0l45.2,45.2
		C149.3,192.6,149.3,195.7,147.4,197.6"/>
	<path class="st0" d="M140.6,197.6L140.6,197.6c-1.9-1.9-1.9-5,0-7l45.2-45.2c1.9-1.9,5-1.9,7,0c1.9,1.9,1.9,5,0,7l-45.2,45.2
		C145.6,199.5,142.5,199.5,140.6,197.6"/>
</g>
</svg>
